# xmcd
#
# Track frame offsets:
#	183
#	13458
#	26370
#	45880
#	56058
#	70703
#	86935
#	101648
#	115840
#	128273
#
# Disc length: 1933 seconds
# Revision: 4
# Processed by: cddbd v1.5.2PL0 Copyright (c) Steve Scherf et al.
# Submitted via: dBpowerAMP V12.0
#
DISCID=7a078b0a
DTITLE=Chely Wright - Woman In The Moon
DYEAR=1994
DGENRE=Country
TTITLE0=Till I Was Loved By You
TTITLE1=He's A Good Ole Boy
TTITLE2=Till All Her Tears Are Dry
TTITLE3=Go On And Go
TTITLE4=Woman In The Moon
TTITLE5=Sea Of Cowboy Hats
TTITLE6=I Love You Enough To Let You Go
TTITLE7=Nobody But A Fool
TTITLE8=He Don't Do Bars Anymore
TTITLE9=The Last Supper
EXTD=
EXTT0=
EXTT1=
EXTT2=
EXTT3=
EXTT4=
EXTT5=
EXTT6=
EXTT7=
EXTT8=
EXTT9=
PLAYORDER=
